HIERARCHY
ROOT Pelvis
{
	OFFSET 0.000000 0.000000 0.000000
	CHANNELS 6 Xposition Yposition Zposition Xrotation Yrotation Zrotation
	JOINT LeftUpLeg_virtual
	{
		OFFSET 0.000000 0.000000 0.000000
		CHANNELS 3 Xrotation Yrotation Zrotation
		JOINT LeftUpLeg
		{
			OFFSET 18.735201 -5.666702 -4.541200
			CHANNELS 3 Xrotation Yrotation Zrotation
			JOINT LeftLeg
			{
				OFFSET -0.021200 -31.938179 0.493100
				CHANNELS 3 Xrotation Yrotation Zrotation
				JOINT LeftFoot
				{
					OFFSET 0.021200 -31.938179 -4.336299
					CHANNELS 3 Xrotation Yrotation Zrotation
					JOINT LeftToeBase
					{
						OFFSET 0.943001 -26.722000 15.023500
						CHANNELS 3 Xrotation Yrotation Zrotation
						End Site
						{
							OFFSET 0 0 0
						}
					}
				}
			}
		}
	}
	JOINT RightUpLeg_virtual
	{
		OFFSET 0.000000 0.000000 0.000000
		CHANNELS 3 Xrotation Yrotation Zrotation
		JOINT RightUpLeg
		{
			OFFSET -18.735201 -5.666702 -4.541200
			CHANNELS 3 Xrotation Yrotation Zrotation
			JOINT RightLeg
			{
				OFFSET 0.018946 -31.938133 0.493100
				CHANNELS 3 Xrotation Yrotation Zrotation
				JOINT RightFoot
				{
					OFFSET -0.018946 -31.938126 -4.336299
					CHANNELS 3 Xrotation Yrotation Zrotation
					JOINT RightToeBase
					{
						OFFSET -0.943001 -26.722004 15.023500
						CHANNELS 3 Xrotation Yrotation Zrotation
						End Site
						{
							OFFSET 0 0 0
						}
					}
				}
			}
		}
	}
	JOINT Hips_virtual
	{
		OFFSET 0.000000 0.000000 0.000000
		CHANNELS 3 Xrotation Yrotation Zrotation
		JOINT Hips
		{
			OFFSET -0.000000 -0.000000 -0.000000
			CHANNELS 3 Xrotation Yrotation Zrotation
			JOINT Spine
			{
				OFFSET 0.000000 10.199997 -0.299500
				CHANNELS 3 Xrotation Yrotation Zrotation
				JOINT Spine1
				{
					OFFSET 0.000000 11.900002 -1.516600
					CHANNELS 3 Xrotation Yrotation Zrotation
					JOINT Spine2
					{
						OFFSET 0.000000 13.600006 -2.842500
						CHANNELS 3 Xrotation Yrotation Zrotation
						JOINT Neck_virtual
						{
							OFFSET 0.000000 0.000000 0.000000
							CHANNELS 3 Xrotation Yrotation Zrotation
							JOINT Neck
							{
								OFFSET 0.000000 9.624100 -2.890100
								CHANNELS 3 Xrotation Yrotation Zrotation
								JOINT Head
								{
									OFFSET 0.000000 14.068802 -1.351900
									CHANNELS 3 Xrotation Yrotation Zrotation
									End Site
									{
										OFFSET 0 0 0
									}
								}
							}
						}
						JOINT LeftShoulder_virtual
						{
							OFFSET 0.000000 0.000000 0.000000
							CHANNELS 3 Xrotation Yrotation Zrotation
							JOINT LeftShoulder
							{
								OFFSET 15.263000 10.923401 -0.547700
								CHANNELS 3 Xrotation Yrotation Zrotation
								JOINT LeftArm
								{
									OFFSET 25.438599 -2.830597 -13.032500
									CHANNELS 3 Xrotation Yrotation Zrotation
									JOINT LeftForeArm
									{
										OFFSET 29.960503 0.000000 0.000000
										CHANNELS 3 Xrotation Yrotation Zrotation
										JOINT LeftHand
										{
											OFFSET 27.849251 0.000000 0.000000
											CHANNELS 3 Xrotation Yrotation Zrotation
											End Site
											{
												OFFSET 0 0 0
											}
										}
									}
								}
							}
						}
						JOINT RightShoulder_virtual
						{
							OFFSET 0.000000 0.000000 0.000000
							CHANNELS 3 Xrotation Yrotation Zrotation
							JOINT RightShoulder
							{
								OFFSET -15.263000 10.923401 -0.547700
								CHANNELS 3 Xrotation Yrotation Zrotation
								JOINT RightArm
								{
									OFFSET -25.438599 -2.830597 -13.032500
									CHANNELS 3 Xrotation Yrotation Zrotation
									JOINT RightForeArm
									{
										OFFSET -29.960503 0.000000 0.000000
										CHANNELS 3 Xrotation Yrotation Zrotation
										JOINT RightHand
										{
											OFFSET -27.849251 0.000000 0.000000
											CHANNELS 3 Xrotation Yrotation Zrotation
											End Site
											{
												OFFSET 0 0 0
											}
										}
									}
								}
							}
						}
					}
				}
			}
		}
	}
}
MOTION
Frames: 4
Frame Time: 0.03333333
3.225018 31.038376 -15.507381 0.000000 0.000000 0.000000 35.526034 3.116215 1.958242 -89.761151 -20.554848 7.218719 129.000758 -6.702016 -2.501720 46.386379 1.903111 -25.625697 0.000000 0.000000 0.000000 35.526034 3.116215 1.958242 -81.259526 30.529173 -20.653529 130.035682 13.561853 3.617725 36.607102 10.629613 18.576612 0.000000 0.000000 0.000000 35.526034 3.116215 1.958242 0.000000 0.000000 0.000000 20.857485 4.980760 -5.459910 16.625271 2.079678 -1.485669 0.000000 0.000000 0.000000 17.328740 1.234475 -2.301335 2.173985 -0.641958 1.296237 0.000000 0.000000 0.000000 17.328740 1.234475 -2.301335 1.353981 -36.456647 -6.881262 -62.004498 -39.879876 -54.567723 -0.000017 -60.951843 -0.000044 0.000000 0.000000 0.000000 17.328740 1.234475 -2.301335 0.501201 13.720771 0.229932 -44.186871 22.328133 43.767910 0.000021 66.682010 -0.000017 0.000000 0.000000 0.000000 
2.932974 30.993904 -15.943859 0.000000 0.000000 0.000000 33.211966 2.262266 1.985174 -87.530397 -21.344338 8.176937 129.719199 -7.803666 -2.423390 46.102199 1.920474 -26.256871 0.000000 0.000000 0.000000 33.211966 2.262266 1.985174 -81.524243 30.046282 -18.751953 130.931721 13.221597 2.928482 37.415114 10.324932 18.790404 0.000000 0.000000 0.000000 33.211966 2.262266 1.985174 0.000000 0.000000 0.000000 21.186589 4.684180 -6.193035 17.022969 1.980984 -1.805813 0.000000 0.000000 0.000000 18.108129 1.141503 -2.575391 2.229323 -0.643322 1.370111 0.000000 0.000000 0.000000 18.108129 1.141503 -2.575391 0.477531 -34.381806 -9.362750 -61.426166 -41.959413 -53.402220 0.000006 -61.272903 0.000004 0.000000 0.000000 0.000000 18.108129 1.141503 -2.575391 0.583478 12.269619 0.145180 -46.315229 24.522703 46.813464 -0.000006 65.396056 -0.000008 0.000000 0.000000 0.000000 
2.725234 31.000816 -16.228855 0.000000 0.000000 0.000000 31.501881 1.659524 1.978119 -85.752615 -21.826177 8.891715 130.156331 -8.453544 -2.336104 45.861411 1.879986 -26.629524 0.000000 0.000000 0.000000 31.501881 1.659524 1.978119 -81.483877 29.716463 -17.411262 131.458657 13.313101 2.549027 37.919605 9.861725 19.179316 0.000000 0.000000 0.000000 31.501881 1.659524 1.978119 0.000000 0.000000 0.000000 21.395988 4.320271 -6.591522 17.202559 1.870332 -1.986118 0.000000 0.000000 0.000000 18.500459 1.040075 -2.690534 2.256216 -0.631515 1.381148 0.000000 0.000000 0.000000 18.500459 1.040075 -2.690534 -0.501351 -31.291071 -12.871380 -60.476749 -44.977366 -51.911767 -0.000005 -61.886514 -0.000004 0.000000 0.000000 0.000000 18.500459 1.040075 -2.690534 0.552210 11.477478 0.087594 -48.643193 26.757888 49.917153 -0.000021 63.773586 0.000033 0.000000 0.000000 0.000000 
2.566176 31.030426 -16.434925 0.000000 0.000000 0.000000 30.138316 1.184816 1.960768 -84.235514 -22.265677 9.495841 130.439510 -8.822846 -2.340214 45.654350 1.724481 -26.758487 0.000000 0.000000 0.000000 30.138316 1.184816 1.960768 -81.326762 29.497593 -16.399231 131.793008 13.713678 2.357871 38.284774 9.257546 19.646718 0.000000 0.000000 0.000000 30.138316 1.184816 1.960768 -0.000004 0.000000 0.000000 21.515828 3.963799 -6.846103 17.308531 1.764368 -2.107502 0.000000 0.000000 0.000000 18.739555 0.943236 -2.743025 2.272925 -0.615417 1.367201 0.000000 0.000000 0.000000 18.739555 0.943236 -2.743025 -1.190611 -27.773398 -16.681113 -58.867433 -47.971629 -49.903333 -0.000037 -63.757644 -0.000037 0.000000 0.000000 0.000000 18.739555 0.943236 -2.743025 0.425780 11.211947 0.063304 -50.733590 28.440168 52.955590 -0.000026 62.997567 0.000016 0.000000 0.000000 0.000000 
